<?xml version="1.0" encoding="UTF-8" standalone="no"?>
<!-- Created with Inkscape (http://www.inkscape.org/) -->

<svg
   xmlns:dc="http://purl.org/dc/elements/1.1/"
   xmlns:cc="http://creativecommons.org/ns#"
   xmlns:rdf="http://www.w3.org/1999/02/22-rdf-syntax-ns#"
   xmlns:svg="http://www.w3.org/2000/svg"
   xmlns="http://www.w3.org/2000/svg"
   xmlns:sodipodi="http://sodipodi.sourceforge.net/DTD/sodipodi-0.dtd"
   xmlns:inkscape="http://www.inkscape.org/namespaces/inkscape"
   width="744.09448819"
   height="1052.3622047"
   id="svg2"
   version="1.1"
   inkscape:version="0.48.4 r9939"
   sodipodi:docname="New document 1">
  <defs
     id="defs4" />
  <sodipodi:namedview
     id="base"
     pagecolor="#ffffff"
     bordercolor="#666666"
     borderopacity="1.0"
     inkscape:pageopacity="0.0"
     inkscape:pageshadow="2"
     inkscape:zoom="0.49497475"
     inkscape:cx="321.42857"
     inkscape:cy="787.24438"
     inkscape:document-units="px"
     inkscape:current-layer="layer1"
     showgrid="false"
     inkscape:window-width="1611"
     inkscape:window-height="928"
     inkscape:window-x="217"
     inkscape:window-y="204"
     inkscape:window-maximized="0" />
  <metadata
     id="metadata7">
    <rdf:RDF>
      <cc:Work
         rdf:about="">
        <dc:format>image/svg+xml</dc:format>
        <dc:type
           rdf:resource="http://purl.org/dc/dcmitype/StillImage" />
        <dc:title></dc:title>
      </cc:Work>
    </rdf:RDF>
  </metadata>
  <g
     inkscape:label="Layer 1"
     inkscape:groupmode="layer"
     id="layer1">
    <path
       style="fill:#000000;fill-opacity:1;stroke:none"
       d="M 342.84375 50.0625 C 276.18906 50.0625 221.95631 111.17266 220.0625 187.375 L 263.125 187.375 C 264.77221 132.31572 299.22746 88.34375 341.5 88.34375 C 358.65609 88.34375 374.5225 95.590038 387.4375 107.875 L 416.78125 78.53125 C 396.21182 60.664085 370.59637 50.0625 342.84375 50.0625 z M 424.03125 85.375 L 394.25 115.15625 C 409.32174 133.16292 419.04958 158.76646 419.90625 187.375 L 465.65625 187.375 C 464.64107 146.76276 448.74224 110.44561 424.03125 85.375 z "
       id="path2996" />
    <path
       style="fill:#000000;fill-opacity:1;stroke:none"
       d="M 205.71875 183.78125 C 188.14931 183.78125 173.74924 196.87974 171.6875 213.875 L 514.03125 213.875 C 511.97046 196.8787 497.57018 183.78125 480 183.78125 L 205.71875 183.78125 z M 171.4375 228.03125 L 171.4375 403.78125 C 171.4375 422.77554 186.72446 438.0625 205.71875 438.0625 L 480 438.0625 C 498.99429 438.0625 514.28125 422.77554 514.28125 403.78125 L 514.28125 228.03125 L 171.4375 228.03125 z "
       id="rect3785" />
  </g>
</svg>
