<?xml version="1.0" encoding="UTF-8" standalone="no"?>
<!-- Created with Inkscape (http://www.inkscape.org/) -->

<svg
   xmlns:dc="http://purl.org/dc/elements/1.1/"
   xmlns:cc="http://creativecommons.org/ns#"
   xmlns:rdf="http://www.w3.org/1999/02/22-rdf-syntax-ns#"
   xmlns:svg="http://www.w3.org/2000/svg"
   xmlns="http://www.w3.org/2000/svg"
   xmlns:sodipodi="http://sodipodi.sourceforge.net/DTD/sodipodi-0.dtd"
   xmlns:inkscape="http://www.inkscape.org/namespaces/inkscape"
   width="744.09448819"
   height="1052.3622047"
   id="svg2"
   version="1.1"
   inkscape:version="0.48.4 r9939"
   sodipodi:docname="New document 1">
  <defs
     id="defs4" />
  <sodipodi:namedview
     id="base"
     pagecolor="#ffffff"
     bordercolor="#666666"
     borderopacity="1.0"
     inkscape:pageopacity="0.0"
     inkscape:pageshadow="2"
     inkscape:zoom="0.7"
     inkscape:cx="366.03123"
     inkscape:cy="755.50402"
     inkscape:document-units="px"
     inkscape:current-layer="layer1"
     showgrid="false"
     inkscape:window-width="1156"
     inkscape:window-height="922"
     inkscape:window-x="378"
     inkscape:window-y="226"
     inkscape:window-maximized="0" />
  <metadata
     id="metadata7">
    <rdf:RDF>
      <cc:Work
         rdf:about="">
        <dc:format>image/svg+xml</dc:format>
        <dc:type
           rdf:resource="http://purl.org/dc/dcmitype/StillImage" />
        <dc:title></dc:title>
      </cc:Work>
    </rdf:RDF>
  </metadata>
  <g
     inkscape:label="Layer 1"
     inkscape:groupmode="layer"
     id="layer1">
    <path
       style="fill:none;stroke:#000000;stroke-width:1.42010009px;stroke-linecap:butt;stroke-linejoin:miter;stroke-opacity:1"
       d="m 18.524467,52.572232 0,499.063688 722.222243,0"
       id="path2985"
       inkscape:connector-curvature="0" />
    <path
       style="fill:none;stroke:#000000;stroke-width:1.42010009px;stroke-linecap:butt;stroke-linejoin:miter;stroke-opacity:1"
       d="M 18.524467,421.79821 637.90776,64.197097"
       id="path2987"
       inkscape:connector-curvature="0" />
    <path
       transform="matrix(0.6563287,0,0,0.6563287,544.90385,31.776384)"
       sodipodi:type="arc"
       style="fill:#4d4d4d;fill-opacity:1;stroke:none"
       id="path2989"
       sodipodi:cx="-541.42859"
       sodipodi:cy="173.79076"
       sodipodi:rx="18.571428"
       sodipodi:ry="18.571428"
       d="m -522.85716,173.79076 a 18.571428,18.571428 0 1 1 -37.14286,0 18.571428,18.571428 0 1 1 37.14286,0 z" />
    <path
       transform="matrix(0.6563287,0,0,0.6563287,675.17684,14.66218)"
       sodipodi:type="arc"
       style="fill:#4d4d4d;fill-opacity:1;stroke:none"
       id="path2989-5"
       sodipodi:cx="-541.42859"
       sodipodi:cy="173.79076"
       sodipodi:rx="18.571428"
       sodipodi:ry="18.571428"
       d="m -522.85716,173.79076 a 18.571428,18.571428 0 1 1 -37.14286,0 18.571428,18.571428 0 1 1 37.14286,0 z" />
    <path
       transform="matrix(0.6563287,0,0,0.6563287,573.42255,123.39289)"
       sodipodi:type="arc"
       style="fill:#4d4d4d;fill-opacity:1;stroke:none"
       id="path2989-9"
       sodipodi:cx="-541.42859"
       sodipodi:cy="173.79076"
       sodipodi:rx="18.571428"
       sodipodi:ry="18.571428"
       d="m -522.85716,173.79076 a 18.571428,18.571428 0 1 1 -37.14286,0 18.571428,18.571428 0 1 1 37.14286,0 z" />
    <path
       transform="matrix(0.6563287,0,0,0.6563287,599.94223,-23.44488)"
       sodipodi:type="arc"
       style="fill:#4d4d4d;fill-opacity:1;stroke:none"
       id="path2989-7"
       sodipodi:cx="-541.42859"
       sodipodi:cy="173.79076"
       sodipodi:rx="18.571428"
       sodipodi:ry="18.571428"
       d="m -522.85716,173.79076 a 18.571428,18.571428 0 1 1 -37.14286,0 18.571428,18.571428 0 1 1 37.14286,0 z" />
    <path
       transform="matrix(0.6563287,0,0,0.6563287,488.55957,79.635407)"
       sodipodi:type="arc"
       style="fill:#4d4d4d;fill-opacity:1;stroke:none"
       id="path2989-0"
       sodipodi:cx="-541.42859"
       sodipodi:cy="173.79076"
       sodipodi:rx="18.571428"
       sodipodi:ry="18.571428"
       d="m -522.85716,173.79076 a 18.571428,18.571428 0 1 1 -37.14286,0 18.571428,18.571428 0 1 1 37.14286,0 z" />
    <path
       transform="matrix(0.6563287,0,0,0.6563287,744.47451,-27.769298)"
       sodipodi:type="arc"
       style="fill:#4d4d4d;fill-opacity:1;stroke:none"
       id="path2989-4"
       sodipodi:cx="-541.42859"
       sodipodi:cy="173.79076"
       sodipodi:rx="18.571428"
       sodipodi:ry="18.571428"
       d="m -522.85716,173.79076 a 18.571428,18.571428 0 1 1 -37.14286,0 18.571428,18.571428 0 1 1 37.14286,0 z" />
    <path
       transform="matrix(0.6563287,0,0,0.6563287,439.49814,208.25587)"
       sodipodi:type="arc"
       style="fill:#4d4d4d;fill-opacity:1;stroke:none"
       id="path2989-1"
       sodipodi:cx="-541.42859"
       sodipodi:cy="173.79076"
       sodipodi:rx="18.571428"
       sodipodi:ry="18.571428"
       d="m -522.85716,173.79076 a 18.571428,18.571428 0 1 1 -37.14286,0 18.571428,18.571428 0 1 1 37.14286,0 z" />
    <path
       transform="matrix(0.6563287,0,0,0.6563287,838.61938,-5.2275883)"
       sodipodi:type="arc"
       style="fill:#4d4d4d;fill-opacity:1;stroke:none"
       id="path2989-53"
       sodipodi:cx="-541.42859"
       sodipodi:cy="173.79076"
       sodipodi:rx="18.571428"
       sodipodi:ry="18.571428"
       d="m -522.85716,173.79076 a 18.571428,18.571428 0 1 1 -37.14286,0 18.571428,18.571428 0 1 1 37.14286,0 z" />
    <path
       transform="matrix(0.6563287,0,0,0.6563287,479.27767,4.0542979)"
       sodipodi:type="arc"
       style="fill:#4d4d4d;fill-opacity:1;stroke:none"
       id="path2989-3"
       sodipodi:cx="-541.42859"
       sodipodi:cy="173.79076"
       sodipodi:rx="18.571428"
       sodipodi:ry="18.571428"
       d="m -522.85716,173.79076 a 18.571428,18.571428 0 1 1 -37.14286,0 18.571428,18.571428 0 1 1 37.14286,0 z" />
    <path
       transform="matrix(-0.55881455,-0.34422906,0.34422906,-0.55881455,11.701801,345.48664)"
       sodipodi:type="arc"
       style="fill:#000080;fill-opacity:1;stroke:none"
       id="path2989-8"
       sodipodi:cx="-541.42859"
       sodipodi:cy="173.79076"
       sodipodi:rx="18.571428"
       sodipodi:ry="18.571428"
       d="m -522.85716,173.79076 a 18.571428,18.571428 0 1 1 -37.14286,0 18.571428,18.571428 0 1 1 37.14286,0 z" />
    <path
       transform="matrix(-0.55881455,-0.34422906,0.34422906,-0.55881455,-96.258026,301.01484)"
       sodipodi:type="arc"
       style="fill:#000080;fill-opacity:1;stroke:none"
       id="path2989-5-2"
       sodipodi:cx="-541.42859"
       sodipodi:cy="173.79076"
       sodipodi:rx="18.571428"
       sodipodi:ry="18.571428"
       d="m -522.85716,173.79076 a 18.571428,18.571428 0 1 1 -37.14286,0 18.571428,18.571428 0 1 1 37.14286,0 z" />
    <path
       transform="matrix(-0.55881455,-0.34422906,0.34422906,-0.55881455,174.35945,376.22098)"
       sodipodi:type="arc"
       style="fill:#000080;fill-opacity:1;stroke:none"
       id="path2989-9-4"
       sodipodi:cx="-541.42859"
       sodipodi:cy="173.79076"
       sodipodi:rx="18.571428"
       sodipodi:ry="18.571428"
       d="m -522.85716,173.79076 a 18.571428,18.571428 0 1 1 -37.14286,0 18.571428,18.571428 0 1 1 37.14286,0 z" />
    <path
       transform="matrix(-0.55881455,-0.34422906,0.34422906,-0.55881455,-89.315192,394.13468)"
       sodipodi:type="arc"
       style="fill:#000080;fill-opacity:1;stroke:none"
       id="path2989-7-8"
       sodipodi:cx="-541.42859"
       sodipodi:cy="173.79076"
       sodipodi:rx="18.571428"
       sodipodi:ry="18.571428"
       d="m -522.85716,173.79076 a 18.571428,18.571428 0 1 1 -37.14286,0 18.571428,18.571428 0 1 1 37.14286,0 z" />
    <path
       transform="matrix(-0.55881455,-0.34422906,0.34422906,-0.55881455,-214.64166,322.01281)"
       sodipodi:type="arc"
       style="fill:#000080;fill-opacity:1;stroke:none"
       id="path2989-4-1"
       sodipodi:cx="-541.42859"
       sodipodi:cy="173.79076"
       sodipodi:rx="18.571428"
       sodipodi:ry="18.571428"
       d="m -522.85716,173.79076 a 18.571428,18.571428 0 1 1 -37.14286,0 18.571428,18.571428 0 1 1 37.14286,0 z" />
    <path
       transform="matrix(-0.55881455,-0.34422906,0.34422906,-0.55881455,27.844281,434.00693)"
       sodipodi:type="arc"
       style="fill:#000080;fill-opacity:1;stroke:none"
       id="path2989-3-8"
       sodipodi:cx="-541.42859"
       sodipodi:cy="173.79076"
       sodipodi:rx="18.571428"
       sodipodi:ry="18.571428"
       d="m -522.85716,173.79076 a 18.571428,18.571428 0 1 1 -37.14286,0 18.571428,18.571428 0 1 1 37.14286,0 z" />
    <path
       transform="matrix(0.55881455,0.34422906,-0.34422906,0.55881455,801.02062,417.84217)"
       sodipodi:type="arc"
       style="fill:#000080;fill-opacity:1;stroke:none"
       id="path2989-8-6"
       sodipodi:cx="-541.42859"
       sodipodi:cy="173.79076"
       sodipodi:rx="18.571428"
       sodipodi:ry="18.571428"
       d="m -522.85716,173.79076 a 18.571428,18.571428 0 1 1 -37.14286,0 18.571428,18.571428 0 1 1 37.14286,0 z" />
    <path
       transform="matrix(0.55881455,0.34422906,-0.34422906,0.55881455,990.3652,462.31397)"
       sodipodi:type="arc"
       style="fill:#000080;fill-opacity:1;stroke:none"
       id="path2989-5-2-7"
       sodipodi:cx="-541.42859"
       sodipodi:cy="173.79076"
       sodipodi:rx="18.571428"
       sodipodi:ry="18.571428"
       d="m -522.85716,173.79076 a 18.571428,18.571428 0 1 1 -37.14286,0 18.571428,18.571428 0 1 1 37.14286,0 z" />
    <path
       transform="matrix(0.55881455,0.34422906,-0.34422906,0.55881455,802.44517,480.30649)"
       sodipodi:type="arc"
       style="fill:#000080;fill-opacity:1;stroke:none"
       id="path2989-9-4-6"
       sodipodi:cx="-541.42859"
       sodipodi:cy="173.79076"
       sodipodi:rx="18.571428"
       sodipodi:ry="18.571428"
       d="m -522.85716,173.79076 a 18.571428,18.571428 0 1 1 -37.14286,0 18.571428,18.571428 0 1 1 37.14286,0 z" />
    <path
       transform="matrix(0.55881455,0.34422906,-0.34422906,0.55881455,736.07591,369.66316)"
       sodipodi:type="arc"
       style="fill:#000080;fill-opacity:1;stroke:none"
       id="path2989-0-7-5"
       sodipodi:cx="-541.42859"
       sodipodi:cy="173.79076"
       sodipodi:rx="18.571428"
       sodipodi:ry="18.571428"
       d="m -522.85716,173.79076 a 18.571428,18.571428 0 1 1 -37.14286,0 18.571428,18.571428 0 1 1 37.14286,0 z" />
    <path
       transform="matrix(-0.55881455,-0.34422906,0.34422906,-0.55881455,172.59564,136.26423)"
       sodipodi:type="arc"
       style="fill:#000080;fill-opacity:1;stroke:none"
       id="path2989-5-2-1"
       sodipodi:cx="-541.42859"
       sodipodi:cy="173.79076"
       sodipodi:rx="18.571428"
       sodipodi:ry="18.571428"
       d="m -522.85716,173.79076 a 18.571428,18.571428 0 1 1 -37.14286,0 18.571428,18.571428 0 1 1 37.14286,0 z" />
  </g>
</svg>
