<?xml version="1.0" encoding="UTF-8" standalone="no"?>
<!-- Created with Inkscape (http://www.inkscape.org/) -->

<svg
   xmlns:osb="http://www.openswatchbook.org/uri/2009/osb"
   xmlns:dc="http://purl.org/dc/elements/1.1/"
   xmlns:cc="http://creativecommons.org/ns#"
   xmlns:rdf="http://www.w3.org/1999/02/22-rdf-syntax-ns#"
   xmlns:svg="http://www.w3.org/2000/svg"
   xmlns="http://www.w3.org/2000/svg"
   xmlns:sodipodi="http://sodipodi.sourceforge.net/DTD/sodipodi-0.dtd"
   xmlns:inkscape="http://www.inkscape.org/namespaces/inkscape"
   width="744.09448819"
   height="1052.3622047"
   id="svg2"
   version="1.1"
   inkscape:version="0.48.4 r9939"
   sodipodi:docname="ml3.svg"
   inkscape:export-filename="/home/jonathan/dev/site/ml3.png"
   inkscape:export-xdpi="99.469177"
   inkscape:export-ydpi="99.469177">
  <defs
     id="defs4">
    <linearGradient
       id="linearGradient4017"
       osb:paint="solid">
      <stop
         style="stop-color:#000000;stop-opacity:1;"
         offset="0"
         id="stop4019" />
    </linearGradient>
  </defs>
  <sodipodi:namedview
     id="base"
     pagecolor="#ffffff"
     bordercolor="#666666"
     borderopacity="1.0"
     inkscape:pageopacity="0.0"
     inkscape:pageshadow="2"
     inkscape:zoom="0.7"
     inkscape:cx="403.66524"
     inkscape:cy="755.50402"
     inkscape:document-units="px"
     inkscape:current-layer="layer1"
     showgrid="false"
     inkscape:window-width="1156"
     inkscape:window-height="922"
     inkscape:window-x="378"
     inkscape:window-y="226"
     inkscape:window-maximized="0" />
  <metadata
     id="metadata7">
    <rdf:RDF>
      <cc:Work
         rdf:about="">
        <dc:format>image/svg+xml</dc:format>
        <dc:type
           rdf:resource="http://purl.org/dc/dcmitype/StillImage" />
        <dc:title></dc:title>
      </cc:Work>
    </rdf:RDF>
  </metadata>
  <g
     inkscape:label="Layer 1"
     inkscape:groupmode="layer"
     id="layer1">
    <path
       style="fill:none;stroke:#000000;stroke-width:1.42010009px;stroke-linecap:butt;stroke-linejoin:miter;stroke-opacity:1"
       d="m 18.524467,52.572232 0,499.063688 722.222243,0"
       id="path2985"
       inkscape:connector-curvature="0" />
    <path
       transform="matrix(0.6563287,0,0,0.6563287,544.90385,31.776384)"
       sodipodi:type="arc"
       style="fill:#4d4d4d;fill-opacity:1;stroke:none"
       id="path2989"
       sodipodi:cx="-541.42859"
       sodipodi:cy="173.79076"
       sodipodi:rx="18.571428"
       sodipodi:ry="18.571428"
       d="m -522.85716,173.79076 a 18.571428,18.571428 0 1 1 -37.14286,0 18.571428,18.571428 0 1 1 37.14286,0 z" />
    <path
       transform="matrix(0.6563287,0,0,0.6563287,675.17684,14.66218)"
       sodipodi:type="arc"
       style="fill:#4d4d4d;fill-opacity:1;stroke:none"
       id="path2989-5"
       sodipodi:cx="-541.42859"
       sodipodi:cy="173.79076"
       sodipodi:rx="18.571428"
       sodipodi:ry="18.571428"
       d="m -522.85716,173.79076 a 18.571428,18.571428 0 1 1 -37.14286,0 18.571428,18.571428 0 1 1 37.14286,0 z" />
    <path
       transform="matrix(0.6563287,0,0,0.6563287,573.42255,123.39289)"
       sodipodi:type="arc"
       style="fill:#4d4d4d;fill-opacity:1;stroke:none"
       id="path2989-9"
       sodipodi:cx="-541.42859"
       sodipodi:cy="173.79076"
       sodipodi:rx="18.571428"
       sodipodi:ry="18.571428"
       d="m -522.85716,173.79076 a 18.571428,18.571428 0 1 1 -37.14286,0 18.571428,18.571428 0 1 1 37.14286,0 z" />
    <path
       transform="matrix(0.6563287,0,0,0.6563287,599.94223,-23.44488)"
       sodipodi:type="arc"
       style="fill:#4d4d4d;fill-opacity:1;stroke:none"
       id="path2989-7"
       sodipodi:cx="-541.42859"
       sodipodi:cy="173.79076"
       sodipodi:rx="18.571428"
       sodipodi:ry="18.571428"
       d="m -522.85716,173.79076 a 18.571428,18.571428 0 1 1 -37.14286,0 18.571428,18.571428 0 1 1 37.14286,0 z" />
    <path
       transform="matrix(0.6563287,0,0,0.6563287,488.55957,79.635407)"
       sodipodi:type="arc"
       style="fill:#4d4d4d;fill-opacity:1;stroke:none"
       id="path2989-0"
       sodipodi:cx="-541.42859"
       sodipodi:cy="173.79076"
       sodipodi:rx="18.571428"
       sodipodi:ry="18.571428"
       d="m -522.85716,173.79076 a 18.571428,18.571428 0 1 1 -37.14286,0 18.571428,18.571428 0 1 1 37.14286,0 z" />
    <path
       transform="matrix(0.6563287,0,0,0.6563287,744.47451,-27.769298)"
       sodipodi:type="arc"
       style="fill:#4d4d4d;fill-opacity:1;stroke:none"
       id="path2989-4"
       sodipodi:cx="-541.42859"
       sodipodi:cy="173.79076"
       sodipodi:rx="18.571428"
       sodipodi:ry="18.571428"
       d="m -522.85716,173.79076 a 18.571428,18.571428 0 1 1 -37.14286,0 18.571428,18.571428 0 1 1 37.14286,0 z" />
    <path
       transform="matrix(0.6563287,0,0,0.6563287,439.49814,208.25587)"
       sodipodi:type="arc"
       style="fill:#4d4d4d;fill-opacity:1;stroke:none"
       id="path2989-1"
       sodipodi:cx="-541.42859"
       sodipodi:cy="173.79076"
       sodipodi:rx="18.571428"
       sodipodi:ry="18.571428"
       d="m -522.85716,173.79076 a 18.571428,18.571428 0 1 1 -37.14286,0 18.571428,18.571428 0 1 1 37.14286,0 z" />
    <path
       transform="matrix(0.6563287,0,0,0.6563287,838.61938,-5.2275883)"
       sodipodi:type="arc"
       style="fill:#4d4d4d;fill-opacity:1;stroke:none"
       id="path2989-53"
       sodipodi:cx="-541.42859"
       sodipodi:cy="173.79076"
       sodipodi:rx="18.571428"
       sodipodi:ry="18.571428"
       d="m -522.85716,173.79076 a 18.571428,18.571428 0 1 1 -37.14286,0 18.571428,18.571428 0 1 1 37.14286,0 z" />
    <path
       transform="matrix(0.6563287,0,0,0.6563287,479.27767,4.0542979)"
       sodipodi:type="arc"
       style="fill:#4d4d4d;fill-opacity:1;stroke:none"
       id="path2989-3"
       sodipodi:cx="-541.42859"
       sodipodi:cy="173.79076"
       sodipodi:rx="18.571428"
       sodipodi:ry="18.571428"
       d="m -522.85716,173.79076 a 18.571428,18.571428 0 1 1 -37.14286,0 18.571428,18.571428 0 1 1 37.14286,0 z" />
    <path
       transform="matrix(-0.55881455,-0.34422906,0.34422906,-0.55881455,11.701801,345.48664)"
       sodipodi:type="arc"
       style="fill:#000080;fill-opacity:1;stroke:none"
       id="path2989-8"
       sodipodi:cx="-541.42859"
       sodipodi:cy="173.79076"
       sodipodi:rx="18.571428"
       sodipodi:ry="18.571428"
       d="m -522.85716,173.79076 a 18.571428,18.571428 0 1 1 -37.14286,0 18.571428,18.571428 0 1 1 37.14286,0 z" />
    <path
       transform="matrix(-0.55881455,-0.34422906,0.34422906,-0.55881455,-96.258026,301.01484)"
       sodipodi:type="arc"
       style="fill:#000080;fill-opacity:1;stroke:none"
       id="path2989-5-2"
       sodipodi:cx="-541.42859"
       sodipodi:cy="173.79076"
       sodipodi:rx="18.571428"
       sodipodi:ry="18.571428"
       d="m -522.85716,173.79076 a 18.571428,18.571428 0 1 1 -37.14286,0 18.571428,18.571428 0 1 1 37.14286,0 z" />
    <path
       transform="matrix(-0.55881455,-0.34422906,0.34422906,-0.55881455,174.35945,376.22098)"
       sodipodi:type="arc"
       style="fill:#000080;fill-opacity:1;stroke:none"
       id="path2989-9-4"
       sodipodi:cx="-541.42859"
       sodipodi:cy="173.79076"
       sodipodi:rx="18.571428"
       sodipodi:ry="18.571428"
       d="m -522.85716,173.79076 a 18.571428,18.571428 0 1 1 -37.14286,0 18.571428,18.571428 0 1 1 37.14286,0 z" />
    <path
       transform="matrix(-0.55881455,-0.34422906,0.34422906,-0.55881455,-89.315192,394.13468)"
       sodipodi:type="arc"
       style="fill:#000080;fill-opacity:1;stroke:none"
       id="path2989-7-8"
       sodipodi:cx="-541.42859"
       sodipodi:cy="173.79076"
       sodipodi:rx="18.571428"
       sodipodi:ry="18.571428"
       d="m -522.85716,173.79076 a 18.571428,18.571428 0 1 1 -37.14286,0 18.571428,18.571428 0 1 1 37.14286,0 z" />
    <path
       transform="matrix(-0.55881455,-0.34422906,0.34422906,-0.55881455,-214.64166,322.01281)"
       sodipodi:type="arc"
       style="fill:#000080;fill-opacity:1;stroke:none"
       id="path2989-4-1"
       sodipodi:cx="-541.42859"
       sodipodi:cy="173.79076"
       sodipodi:rx="18.571428"
       sodipodi:ry="18.571428"
       d="m -522.85716,173.79076 a 18.571428,18.571428 0 1 1 -37.14286,0 18.571428,18.571428 0 1 1 37.14286,0 z" />
    <path
       transform="matrix(-0.55881455,-0.34422906,0.34422906,-0.55881455,27.844281,434.00693)"
       sodipodi:type="arc"
       style="fill:#000080;fill-opacity:1;stroke:none"
       id="path2989-3-8"
       sodipodi:cx="-541.42859"
       sodipodi:cy="173.79076"
       sodipodi:rx="18.571428"
       sodipodi:ry="18.571428"
       d="m -522.85716,173.79076 a 18.571428,18.571428 0 1 1 -37.14286,0 18.571428,18.571428 0 1 1 37.14286,0 z" />
    <path
       transform="matrix(0.55881455,0.34422906,-0.34422906,0.55881455,801.02062,417.84217)"
       sodipodi:type="arc"
       style="fill:#000080;fill-opacity:1;stroke:none"
       id="path2989-8-6"
       sodipodi:cx="-541.42859"
       sodipodi:cy="173.79076"
       sodipodi:rx="18.571428"
       sodipodi:ry="18.571428"
       d="m -522.85716,173.79076 a 18.571428,18.571428 0 1 1 -37.14286,0 18.571428,18.571428 0 1 1 37.14286,0 z" />
    <path
       transform="matrix(0.55881455,0.34422906,-0.34422906,0.55881455,990.3652,462.31397)"
       sodipodi:type="arc"
       style="fill:#000080;fill-opacity:1;stroke:none"
       id="path2989-5-2-7"
       sodipodi:cx="-541.42859"
       sodipodi:cy="173.79076"
       sodipodi:rx="18.571428"
       sodipodi:ry="18.571428"
       d="m -522.85716,173.79076 a 18.571428,18.571428 0 1 1 -37.14286,0 18.571428,18.571428 0 1 1 37.14286,0 z" />
    <path
       transform="matrix(0.55881455,0.34422906,-0.34422906,0.55881455,802.44517,480.30649)"
       sodipodi:type="arc"
       style="fill:#000080;fill-opacity:1;stroke:none"
       id="path2989-9-4-6"
       sodipodi:cx="-541.42859"
       sodipodi:cy="173.79076"
       sodipodi:rx="18.571428"
       sodipodi:ry="18.571428"
       d="m -522.85716,173.79076 a 18.571428,18.571428 0 1 1 -37.14286,0 18.571428,18.571428 0 1 1 37.14286,0 z" />
    <path
       transform="matrix(0.55881455,0.34422906,-0.34422906,0.55881455,736.07591,369.66316)"
       sodipodi:type="arc"
       style="fill:#000080;fill-opacity:1;stroke:none"
       id="path2989-0-7-5"
       sodipodi:cx="-541.42859"
       sodipodi:cy="173.79076"
       sodipodi:rx="18.571428"
       sodipodi:ry="18.571428"
       d="m -522.85716,173.79076 a 18.571428,18.571428 0 1 1 -37.14286,0 18.571428,18.571428 0 1 1 37.14286,0 z" />
    <path
       transform="matrix(-0.55881455,-0.34422906,0.34422906,-0.55881455,172.59564,136.26423)"
       sodipodi:type="arc"
       style="fill:#000080;fill-opacity:1;stroke:none"
       id="path2989-5-2-1"
       sodipodi:cx="-541.42859"
       sodipodi:cy="173.79076"
       sodipodi:rx="18.571428"
       sodipodi:ry="18.571428"
       d="m -522.85716,173.79076 a 18.571428,18.571428 0 1 1 -37.14286,0 18.571428,18.571428 0 1 1 37.14286,0 z" />
    <path
       transform="matrix(0.55881455,0.34422906,-0.34422906,0.55881455,643.23914,262.19226)"
       sodipodi:type="arc"
       style="fill:#aa0000;fill-opacity:1;stroke:none"
       id="path2989-0-7-5-7"
       sodipodi:cx="-541.42859"
       sodipodi:cy="173.79076"
       sodipodi:rx="18.571428"
       sodipodi:ry="18.571428"
       d="m -522.85716,173.79076 a 18.571428,18.571428 0 1 1 -37.14286,0 18.571428,18.571428 0 1 1 37.14286,0 z" />
    <path
       style="fill:none;stroke:#000000;stroke-width:1px;stroke-linecap:butt;stroke-linejoin:miter;stroke-opacity:1"
       d="m 277.14286,178.07647 -57.14286,60"
       id="path4099"
       inkscape:connector-curvature="0" />
    <path
       style="fill:none;stroke:#000000;stroke-width:1px;stroke-linecap:butt;stroke-linejoin:miter;stroke-opacity:1"
       d="m 278.92468,172.68934 -92.7065,-26.3686"
       id="path4101"
       inkscape:connector-curvature="0" />
    <path
       style="fill:none;stroke:#000000;stroke-width:1px;stroke-linecap:butt;stroke-linejoin:miter;stroke-opacity:1"
       d="m 317.14286,129.50504 -34.28572,40 -37.14285,-80.000001"
       id="path4103"
       inkscape:connector-curvature="0" />
    <path
       style="fill:none;stroke:#000000;stroke-width:0.90618324px;stroke-linecap:butt;stroke-linejoin:miter;stroke-opacity:1"
       d="M 282.92898,173.2047 372.7853,277.23394"
       id="path4105"
       inkscape:connector-curvature="0" />
    <text
       xml:space="preserve"
       style="font-size:20.25389671px;font-style:normal;font-weight:normal;line-height:125%;letter-spacing:0px;word-spacing:0px;fill:#000000;fill-opacity:1;stroke:none;font-family:Sans"
       x="309.31223"
       y="162.36218"
       id="text4125"
       sodipodi:linespacing="125%"><tspan
         sodipodi:role="line"
         id="tspan4127"
         x="309.31223"
         y="162.36218">1</tspan></text>
    <text
       xml:space="preserve"
       style="font-size:20.25389671px;font-style:normal;font-weight:normal;line-height:125%;letter-spacing:0px;word-spacing:0px;fill:#000000;fill-opacity:1;stroke:none;font-family:Sans"
       x="239.09317"
       y="119.74477"
       id="text4125-7"
       sodipodi:linespacing="125%"><tspan
         sodipodi:role="line"
         id="tspan4127-9"
         x="239.09317"
         y="119.74477">2</tspan></text>
    <text
       xml:space="preserve"
       style="font-size:20.25389671px;font-style:normal;font-weight:normal;line-height:125%;letter-spacing:0px;word-spacing:0px;fill:#000000;fill-opacity:1;stroke:none;font-family:Sans"
       x="198.11462"
       y="174.16399"
       id="text4125-7-4"
       sodipodi:linespacing="125%"><tspan
         sodipodi:role="line"
         id="tspan4127-9-7"
         x="198.11462"
         y="174.16399">3</tspan></text>
    <text
       xml:space="preserve"
       style="font-size:20.25389671px;font-style:normal;font-weight:normal;line-height:125%;letter-spacing:0px;word-spacing:0px;fill:#000000;fill-opacity:1;stroke:none;font-family:Sans"
       x="235.02505"
       y="244.0206"
       id="text4125-7-4-8"
       sodipodi:linespacing="125%"><tspan
         sodipodi:role="line"
         id="tspan4127-9-7-9"
         x="235.02505"
         y="244.0206">4</tspan></text>
    <text
       xml:space="preserve"
       style="font-size:20.25389671px;font-style:normal;font-weight:normal;line-height:125%;letter-spacing:0px;word-spacing:0px;fill:#000000;fill-opacity:1;stroke:none;font-family:Sans"
       x="367.91681"
       y="256.88763"
       id="text4125-7-4-8-2"
       sodipodi:linespacing="125%"><tspan
         sodipodi:role="line"
         id="tspan4127-9-7-9-7"
         x="367.91681"
         y="256.88763">5</tspan></text>
  </g>
</svg>
